ffmpeg version N-99416-gad2546e3b3 Copyright (c) 2000-2020 the FFmpeg developers
  built with gcc 9.3-win32 (GCC) 20200320
  configuration: --prefix=/ffbuild/prefix --pkg-config-flags=--static --pkg-config=pkg-config --cross-prefix=x86_64-w64-mingw32- --arch=x86_64 --target-os=mingw32 --enable-gpl --enable-version3 --disable-debug --enable-iconv --enable-zlib --enable-libxml2 --enable-libfreetype --enable-libfribidi --enable-gmp --enable-lzma --enable-fontconfig --enable-libvmaf --enable-vulkan --enable-libvorbis --enable-amf --enable-libaom --enable-avisynth --enable-libdav1d --enable-ffnvcodec --enable-cuda-llvm --enable-libglslang --enable-libass --enable-libbluray --enable-libmp3lame --enable-libopus --enable-libtheora --enable-libvpx --enable-libwebp --enable-libmfx --enable-libopencore-amrnb --enable-libopencore-amrwb --enable-libopenjpeg --enable-librav1e --enable-schannel --enable-sdl2 --enable-libsoxr --enable-libsrt --enable-libsvtav1 --enable-libtwolame --enable-libvidstab --disable-libwavpack --enable-libx264 --enable-libx265 --enable-libxvid --enable-libzimg --extra-cflags=-DLIBTWOLAME_STATIC --extra-cxxflags= --extra-ldflags=-pthread --extra-libs=-lgomp
  libavutil      56. 60.100 / 56. 60.100
  libavcodec     58.108.100 / 58.108.100
  libavformat    58. 59.100 / 58. 59.100
  libavdevice    58. 11.102 / 58. 11.102
  libavfilter     7. 87.100 /  7. 87.100
  libswscale      5.  8.100 /  5.  8.100
  libswresample   3.  8.100 /  3.  8.100
  libpostproc    55.  8.100 / 55.  8.100
Splitting the commandline.
Reading option '-v' ... matched as option 'v' (set logging level) with argument 'debug'.
Reading option '-nostdin' ... matched as option 'stdin' (enable or disable interaction on standard input) with argument 0.
Reading option '-progress' ... matched as option 'progress' (write program-readable progress information) with argument 'C:/Users/Imran/AppData/Local/Temp/KritaFFmpegProgress.tNuJGp'.
Reading option '-r' ... matched as option 'r' (set frame rate (Hz value, fraction or abbreviation)) with argument '24'.
Reading option '-start_number' ... matched as AVOption 'start_number' with argument '0'.
Reading option '-i' ... matched as input url with argument 'H:/Game Dev IQ/FunButton/Docs/slimey/frame%04d.png'.
Reading option '-i' ... matched as input url with argument 'H:/Game Dev IQ/FunButton/Docs/palette.png'.
Reading option '-lavfi' ... matched as option 'lavfi' (create a complex filtergraph) with argument '[0:v][1:v] paletteuse'.
Reading option '-y' ... matched as option 'y' (overwrite output files) with argument '1'.
Reading option 'H:/Game Dev IQ/FunButton/Docs/slimey.gif' ... matched as output url.
Reading option '-vf' ... matched as option 'vf' (set video filters) with argument 'scale=w=30:h=16'.
Trailing option(s) found in the command: may be ignored.
Finished splitting the commandline.
Parsing a group of options: global .
Applying option v (set logging level) with argument debug.
Applying option nostdin (enable or disable interaction on standard input) with argument 0.
Applying option progress (write program-readable progress information) with argument C:/Users/Imran/AppData/Local/Temp/KritaFFmpegProgress.tNuJGp.
[file @ 0000025316545380] Setting default whitelist 'file,crypto,data'
Applying option lavfi (create a complex filtergraph) with argument [0:v][1:v] paletteuse.
Applying option y (overwrite output files) with argument 1.
Successfully parsed a group of options.
Parsing a group of options: input url H:/Game Dev IQ/FunButton/Docs/slimey/frame%04d.png.
Applying option r (set frame rate (Hz value, fraction or abbreviation)) with argument 24.
Successfully parsed a group of options.
Opening an input file: H:/Game Dev IQ/FunButton/Docs/slimey/frame%04d.png.
[image2 @ 00000253165857c0] Opening 'H:/Game Dev IQ/FunButton/Docs/slimey/frame0000.png' for reading
[file @ 0000025314cac240] Setting default whitelist 'file,crypto,data'
[AVIOContext @ 0000025316590040] Statistics: 1814 bytes read, 0 seeks
[image2 @ 00000253165857c0] Opening 'H:/Game Dev IQ/FunButton/Docs/slimey/frame0001.png' for reading
[file @ 00000253165c9d40] Setting default whitelist 'file,crypto,data'
[AVIOContext @ 0000025316590040] Statistics: 1814 bytes read, 0 seeks
[image2 @ 00000253165857c0] Opening 'H:/Game Dev IQ/FunButton/Docs/slimey/frame0002.png' for reading
[file @ 0000025316590a80] Setting default whitelist 'file,crypto,data'
[AVIOContext @ 0000025316590b80] Statistics: 1812 bytes read, 0 seeks
[image2 @ 00000253165857c0] Opening 'H:/Game Dev IQ/FunButton/Docs/slimey/frame0003.png' for reading
[file @ 0000025316590a80] Setting default whitelist 'file,crypto,data'
[AVIOContext @ 0000025314caeb40] Statistics: 1812 bytes read, 0 seeks
[image2 @ 00000253165857c0] Opening 'H:/Game Dev IQ/FunButton/Docs/slimey/frame0004.png' for reading
[file @ 0000025314caeb40] Setting default whitelist 'file,crypto,data'
[AVIOContext @ 0000025314caec00] Statistics: 1816 bytes read, 0 seeks
[image2 @ 00000253165857c0] Opening 'H:/Game Dev IQ/FunButton/Docs/slimey/frame0005.png' for reading
[file @ 0000025314caee40] Setting default whitelist 'file,crypto,data'
[AVIOContext @ 0000025314caeb40] Statistics: 1816 bytes read, 0 seeks
[image2 @ 00000253165857c0] Opening 'H:/Game Dev IQ/FunButton/Docs/slimey/frame0006.png' for reading
[file @ 0000025314caee40] Setting default whitelist 'file,crypto,data'
[AVIOContext @ 0000025314cad940] Statistics: 1816 bytes read, 0 seeks
[image2 @ 00000253165857c0] Opening 'H:/Game Dev IQ/FunButton/Docs/slimey/frame0007.png' for reading
[file @ 0000025314cad940] Setting default whitelist 'file,crypto,data'
[AVIOContext @ 0000025314cadb00] Statistics: 1801 bytes read, 0 seeks
[image2 @ 00000253165857c0] Opening 'H:/Game Dev IQ/FunButton/Docs/slimey/frame0008.png' for reading
[file @ 0000025314cad940] Setting default whitelist 'file,crypto,data'
[AVIOContext @ 0000025314cadb00] Statistics: 1798 bytes read, 0 seeks
[image2 @ 00000253165857c0] Opening 'H:/Game Dev IQ/FunButton/Docs/slimey/frame0009.png' for reading
[file @ 0000025314cadb00] Setting default whitelist 'file,crypto,data'
[AVIOContext @ 000002531658e140] Statistics: 1798 bytes read, 0 seeks
[image2 @ 00000253165857c0] Opening 'H:/Game Dev IQ/FunButton/Docs/slimey/frame0010.png' for reading
[file @ 000002531658e140] Setting default whitelist 'file,crypto,data'
[AVIOContext @ 000002531658ea40] Statistics: 1798 bytes read, 0 seeks
[image2 @ 00000253165857c0] Opening 'H:/Game Dev IQ/FunButton/Docs/slimey/frame0011.png' for reading
[file @ 000002531658e140] Setting default whitelist 'file,crypto,data'
[AVIOContext @ 000002531658ea40] Statistics: 1798 bytes read, 0 seeks
[image2 @ 00000253165857c0] Opening 'H:/Game Dev IQ/FunButton/Docs/slimey/frame0012.png' for reading
[file @ 000002531658e140] Setting default whitelist 'file,crypto,data'
[AVIOContext @ 000002531658ea40] Statistics: 1798 bytes read, 0 seeks
Input #0, image2, from 'H:/Game Dev IQ/FunButton/Docs/slimey/frame%04d.png':
  Duration: 00:00:00.52, start: 0.000000, bitrate: N/A
    Stream #0:0, 13, 1/25: Video: png, 1 reference frame, rgba(pc), 320x180 [SAR 7874:7874 DAR 16:9], 0/1, 25 fps, 25 tbr, 25 tbn, 25 tbc
Successfully opened the file.
Parsing a group of options: input url H:/Game Dev IQ/FunButton/Docs/palette.png.
Successfully parsed a group of options.
Opening an input file: H:/Game Dev IQ/FunButton/Docs/palette.png.
[NULL @ 0000025314cade00] Opening 'H:/Game Dev IQ/FunButton/Docs/palette.png' for reading
[file @ 0000025314ca8b40] Setting default whitelist 'file,crypto,data'
[png_pipe @ 0000025314cade00] Format png_pipe probed with size=2048 and score=99
[png_pipe @ 0000025314cade00] Before avformat_find_stream_info() pos: 0 bytes read:144 seeks:0 nb_streams:1
[png_pipe @ 0000025314cade00] After avformat_find_stream_info() pos: 144 bytes read:144 seeks:0 frames:1
Input #1, png_pipe, from 'H:/Game Dev IQ/FunButton/Docs/palette.png':
  Duration: N/A, bitrate: N/A
    Stream #1:0, 1, 1/25: Video: png, 1 reference frame, rgba(pc), 16x16 [SAR 1:1 DAR 1:1], 0/1, 25 tbr, 25 tbn, 25 tbc
Successfully opened the file.
Parsing a group of options: output url H:/Game Dev IQ/FunButton/Docs/slimey.gif.
Successfully parsed a group of options.
Opening an output file: H:/Game Dev IQ/FunButton/Docs/slimey.gif.
[file @ 000002531658af80] Setting default whitelist 'file,crypto,data'
Successfully opened the file.
detected 4 logical cores
Stream mapping:
  Stream #0:0 (png) -> paletteuse:default
  Stream #1:0 (png) -> paletteuse:palette
  paletteuse -> Stream #0:0 (gif)
cur_dts is invalid st:0 (0) [init:0 i_done:0 finish:0] (this is harmless if it occurs once at the start per stream)
    Last message repeated 259 times
[image2 @ 00000253165857c0] Thread message queue blocking; consider raising the thread_queue_size option (current value: 8)
cur_dts is invalid st:0 (0) [init:0 i_done:0 finish:0] (this is harmless if it occurs once at the start per stream)
    Last message repeated 3 times
[graph 0 input from stream 0:0 @ 00000253169dd1c0] Setting 'video_size' to value '320x180'
[graph 0 input from stream 0:0 @ 00000253169dd1c0] Setting 'pix_fmt' to value '26'
[graph 0 input from stream 0:0 @ 00000253169dd1c0] Setting 'time_base' to value '1/24'
[graph 0 input from stream 0:0 @ 00000253169dd1c0] Setting 'pixel_aspect' to value '7874/7874'
[graph 0 input from stream 0:0 @ 00000253169dd1c0] Setting 'frame_rate' to value '24/1'
[graph 0 input from stream 0:0 @ 00000253169dd1c0] w:320 h:180 pixfmt:rgba tb:1/24 fr:24/1 sar:7874/7874
[graph 0 input from stream 1:0 @ 00000253169dd2c0] Setting 'video_size' to value '16x16'
[graph 0 input from stream 1:0 @ 00000253169dd2c0] Setting 'pix_fmt' to value '26'
[graph 0 input from stream 1:0 @ 00000253169dd2c0] Setting 'time_base' to value '1/25'
[graph 0 input from stream 1:0 @ 00000253169dd2c0] Setting 'pixel_aspect' to value '1/1'
[graph 0 input from stream 1:0 @ 00000253169dd2c0] Setting 'frame_rate' to value '25/1'
[graph 0 input from stream 1:0 @ 00000253169dd2c0] w:16 h:16 pixfmt:rgba tb:1/25 fr:25/1 sar:1/1
[format @ 00000253165a1e00] Setting 'pix_fmts' to value 'rgb8|bgr8|rgb4_byte|bgr4_byte|gray|pal8'
[auto_scaler_0 @ 00000253169df440] w:iw h:ih flags:'bilinear' interl:0
[Parsed_paletteuse_0 @ 00000253169dd0c0] auto-inserting filter 'auto_scaler_0' between the filter 'graph 0 input from stream 0:0' and the filter 'Parsed_paletteuse_0'
[auto_scaler_1 @ 00000253169e0c40] w:iw h:ih flags:'bilinear' interl:0
[Parsed_paletteuse_0 @ 00000253169dd0c0] auto-inserting filter 'auto_scaler_1' between the filter 'graph 0 input from stream 1:0' and the filter 'Parsed_paletteuse_0'
[AVFilterGraph @ 00000253165ca800] query_formats: 5 queried, 2 merged, 2 already done, 0 delayed
[swscaler @ 00000253165a8cc0] Forcing full internal H chroma due to input having non subsampled chroma
[auto_scaler_0 @ 00000253169df440] w:320 h:180 fmt:rgba sar:7874/7874 -> w:320 h:180 fmt:bgra sar:1/1 flags:0x2
[swscaler @ 0000025316b0ff00] Forcing full internal H chroma due to input having non subsampled chroma
[auto_scaler_1 @ 00000253169e0c40] w:16 h:16 fmt:rgba sar:1/1 -> w:16 h:16 fmt:bgra sar:1/1 flags:0x2
[Parsed_paletteuse_0 @ 00000253169dd0c0] [framesync @ 0000025316a8df08] Selected 1/600 time base
[Parsed_paletteuse_0 @ 00000253169dd0c0] [framesync @ 0000025316a8df08] Sync level 2
Output #0, gif, to 'H:/Game Dev IQ/FunButton/Docs/slimey.gif':
  Metadata:
    encoder         : Lavf58.59.100
    Stream #0:0, 0, 1/100: Video: gif, 1 reference frame, pal8, 320x180 [SAR 1:1 DAR 16:9], 0/1, q=2-31, 200 kb/s, 24 fps, 100 tbn, 24 tbc (default)
    Metadata:
      encoder         : Lavc58.108.100 gif
Clipping frame in rate conversion by 0.000008
[gif @ 000002531658a5c0] 16x12 image at pos (176;84) [area:320x180]
    Last message repeated 12 times
[Parsed_paletteuse_0 @ 00000253169dd0c0] [framesync @ 0000025316a8df08] Sync level 0
[out_0_0 @ 0000025316b0fd40] EOF on sink link out_0_0:default.
No more output streams to write to, finishing.
frame=   13 fps=0.0 q=-0.0 Lsize=       3kB time=00:00:00.51 bitrate=  48.5kbits/s speed=19.5x    
[AVIOContext @ 0000025316585540] Statistics: 0 seeks, 1 writeouts
video:3kB audio:0kB subtitle:0kB other streams:0kB global headers:0kB muxing overhead: 0.651466%
Input file #0 (H:/Game Dev IQ/FunButton/Docs/slimey/frame%04d.png):
  Input stream #0:0 (video): 13 packets read (23491 bytes); 13 frames decoded; 
  Total: 13 packets (23491 bytes) demuxed
Input file #1 (H:/Game Dev IQ/FunButton/Docs/palette.png):
  Input stream #1:0 (video): 1 packets read (144 bytes); 1 frames decoded; 
  Total: 1 packets (144 bytes) demuxed
Output file #0 (H:/Game Dev IQ/FunButton/Docs/slimey.gif):
  Output stream #0:0 (video): 13 frames encoded; 13 packets muxed (3070 bytes); 
  Total: 13 packets (3070 bytes) muxed
14 frames successfully decoded, 0 decoding errors
[AVIOContext @ 000002531658b080] Statistics: 0 seeks, 1 writeouts
[AVIOContext @ 00000253165dbd80] Statistics: 144 bytes read, 0 seeks
